<?xml version="1.0" encoding="UTF-8" standalone="no"?>
<svg
   width="278.30188"
   height="278.30188"
   viewBox="0 0 278.30189 278.30188"
   version="1.1"
   id="svg11150"
   sodipodi:docname="logo1.6.svg"
   inkscape:version="1.1.2 (b8e25be833, 2022-02-05)"
   xmlns:inkscape="http://www.inkscape.org/namespaces/inkscape"
   xmlns:sodipodi="http://sodipodi.sourceforge.net/DTD/sodipodi-0.dtd"
   xmlns:xlink="http://www.w3.org/1999/xlink"
   xmlns="http://www.w3.org/2000/svg"
   xmlns:svg="http://www.w3.org/2000/svg"
   xmlns:rdf="http://www.w3.org/1999/02/22-rdf-syntax-ns#"
   xmlns:cc="http://creativecommons.org/ns#"
   xmlns:dc="http://purl.org/dc/elements/1.1/">
  <defs
     id="defs11154">
    <inkscape:path-effect
       effect="powerclip"
       id="path-effect140544"
       is_visible="true"
       lpeversion="1"
       inverse="true"
       flatten="false"
       hide_clip="false"
       message="Use fill-rule evenodd on &lt;b&gt;fill and stroke&lt;/b&gt; dialog if no flatten result after convert clip to paths." />
    <rect
       x="404"
       y="-11"
       width="747"
       height="318"
       id="rect136173" />
    <inkscape:path-effect
       effect="powerclip"
       id="path-effect51723"
       is_visible="true"
       lpeversion="1"
       inverse="true"
       flatten="false"
       hide_clip="false"
       message="Use fill-rule evenodd on &lt;b&gt;fill and stroke&lt;/b&gt; dialog if no flatten result after convert clip to paths." />
    <linearGradient
       inkscape:collect="always"
       id="01">
      <stop
         style="stop-color:#ffffff;stop-opacity:1"
         offset="0"
         id="stop36338" />
      <stop
         style="stop-color:#d9d9d9;stop-opacity:1;"
         offset="0.05377511"
         id="stop44417" />
      <stop
         style="stop-color:#676767;stop-opacity:1"
         offset="0.15587032"
         id="stop36380" />
      <stop
         style="stop-color:#2a2a2a;stop-opacity:1"
         offset="0.25521985"
         id="stop36378" />
      <stop
         style="stop-color:#7c7c7c;stop-opacity:1;"
         offset="0.50581443"
         id="stop44415" />
      <stop
         style="stop-color:#bababa;stop-opacity:1;"
         offset="0.5527848"
         id="stop47288" />
      <stop
         style="stop-color:#f9f9f9;stop-opacity:1"
         offset="0.599738"
         id="stop40480" />
      <stop
         style="stop-color:#727272;stop-opacity:1"
         offset="0.66022527"
         id="stop38940" />
      <stop
         style="stop-color:#000000;stop-opacity:1"
         offset="0.86055559"
         id="stop36376" />
      <stop
         style="stop-color:#848484;stop-opacity:1"
         offset="0.95968962"
         id="stop38942" />
      <stop
         style="stop-color:#ffffff;stop-opacity:1"
         offset="0.97984481"
         id="stop47290" />
      <stop
         style="stop-color:#a0a0a0;stop-opacity:1"
         offset="1"
         id="stop36340" />
    </linearGradient>
    <radialGradient
       inkscape:collect="always"
       xlink:href="#01"
       id="radialGradient36344"
       cx="457.50571"
       cy="252.38658"
       fx="457.50571"
       fy="252.38658"
       r="120.46377"
       gradientTransform="matrix(1.0000001,-6.8345712e-4,6.8435269e-4,1.0013105,-0.17279137,-0.01806954)"
       gradientUnits="userSpaceOnUse" />
    <clipPath
       clipPathUnits="userSpaceOnUse"
       id="clipPath51719">
      <circle
         style="display:none;opacity:1;fill:#ffffff;fill-opacity:1;stroke:none;stroke-width:0.162784;stroke-linejoin:miter;stroke-miterlimit:4;stroke-dasharray:none;stroke-opacity:1"
         id="circle51721"
         cx="457.54718"
         cy="252.35851"
         r="106.56829"
         d="M 564.11547,252.35851 A 106.56829,106.56829 0 0 1 457.54718,358.9268 106.56829,106.56829 0 0 1 350.97889,252.35851 106.56829,106.56829 0 0 1 457.54718,145.79021 106.56829,106.56829 0 0 1 564.11547,252.35851 Z" />
      <path
         id="lpe_path-effect51723"
         style="opacity:1;fill:#ffffff;fill-opacity:1;stroke:none;stroke-width:0.162784;stroke-linejoin:miter;stroke-miterlimit:4;stroke-dasharray:none;stroke-opacity:1"
         class="powerclip"
         d="M 313.39624,108.20757 H 601.69812 V 396.50945 H 313.39624 Z M 564.11547,252.35851 A 106.56829,106.56829 0 0 0 457.54718,145.79021 106.56829,106.56829 0 0 0 350.97889,252.35851 106.56829,106.56829 0 0 0 457.54718,358.9268 106.56829,106.56829 0 0 0 564.11547,252.35851 Z" />
    </clipPath>
    <clipPath
       clipPathUnits="userSpaceOnUse"
       id="clipPath140155">
      <ellipse
         style="fill:#ececec;stroke-width:0.309283"
         id="ellipse140157"
         cx="457.54718"
         cy="252.35851"
         ry="102"
         rx="100"
         transform="rotate(-0.48969559)" />
    </clipPath>
    <clipPath
       clipPathUnits="userSpaceOnUse"
       id="clipPath140280">
      <circle
         style="fill:#ffffff;stroke-width:0.115114"
         id="circle140282"
         cx="457.54718"
         cy="252.35851"
         r="74.204308"
         transform="rotate(-0.4896956)" />
    </clipPath>
    <clipPath
       clipPathUnits="userSpaceOnUse"
       id="clipPath140540">
      <circle
         style="display:none;fill:#ffffff;stroke-width:0.194677"
         id="circle140542"
         cx="457.54718"
         cy="252.35851"
         r="100.84906"
         d="M 558.39624,252.35851 A 100.84906,100.84906 0 0 1 457.54718,353.20757 100.84906,100.84906 0 0 1 356.69812,252.35851 100.84906,100.84906 0 0 1 457.54718,151.50945 100.84906,100.84906 0 0 1 558.39624,252.35851 Z" />
      <path
         id="lpe_path-effect140544"
         style="fill:#ffffff;stroke-width:0.194677"
         class="powerclip"
         d="M 330.69812,125.50945 H 584.39624 V 379.20757 H 330.69812 Z M 558.39624,252.35851 A 100.84906,100.84906 0 0 0 457.54718,151.50945 100.84906,100.84906 0 0 0 356.69812,252.35851 100.84906,100.84906 0 0 0 457.54718,353.20757 100.84906,100.84906 0 0 0 558.39624,252.35851 Z" />
    </clipPath>
  </defs>
  <sodipodi:namedview
     id="namedview11152"
     pagecolor="#ffffff"
     bordercolor="#111111"
     borderopacity="1"
     inkscape:pageshadow="0"
     inkscape:pageopacity="0"
     inkscape:pagecheckerboard="1"
     showgrid="false"
     inkscape:snap-bbox="true"
     inkscape:bbox-paths="true"
     inkscape:snap-object-midpoints="true"
     inkscape:snap-center="false"
     inkscape:zoom="1.4142136"
     inkscape:cx="239.7092"
     inkscape:cy="147.78532"
     inkscape:window-width="1920"
     inkscape:window-height="990"
     inkscape:window-x="-11"
     inkscape:window-y="-11"
     inkscape:window-maximized="1"
     inkscape:current-layer="layer1"
     showborder="true"
     inkscape:showpageshadow="false"
     fit-margin-top="0"
     fit-margin-left="0"
     fit-margin-right="0"
     fit-margin-bottom="0" />
  <title
     id="title5612">Produce by Acme CAD Converter</title>
  <desc
     id="desc5614">Produce by Acme CAD Converter</desc>
  <g
     inkscape:groupmode="layer"
     id="layer1"
     inkscape:label="Layer 1"
     style="display:inline"
     transform="translate(-318.39624,-113.20757)">
    <path
       style="fill:#000000"
       id="path12349"
       clip-path="url(#clipPath51719)"
       inkscape:path-effect="#path-effect51723"
       sodipodi:type="arc"
       sodipodi:cx="457.54718"
       sodipodi:cy="252.35851"
       sodipodi:rx="139.15094"
       sodipodi:ry="139.15094"
       d="M 596.69812,252.35851 A 139.15094,139.15094 0 0 1 457.54718,391.50945 139.15094,139.15094 0 0 1 318.39624,252.35851 139.15094,139.15094 0 0 1 457.54718,113.20757 139.15094,139.15094 0 0 1 596.69812,252.35851 Z" />
    <text
       xml:space="preserve"
       transform="translate(318.39624,113.20757)"
       id="text136171"
       style="font-size:53.3333px;line-height:1.25;font-family:sans-serif;white-space:pre;shape-inside:url(#rect136173)" />
    <path
       style="fill:#000000;stroke-width:0.158"
       id="path140390"
       clip-path="url(#clipPath140540)"
       inkscape:path-effect="#path-effect140544"
       sodipodi:type="arc"
       sodipodi:cx="457.54718"
       sodipodi:cy="252.35851"
       sodipodi:rx="121.84906"
       sodipodi:ry="121.84906"
       d="M 579.39624,252.35851 A 121.84906,121.84906 0 0 1 457.54718,374.20757 121.84906,121.84906 0 0 1 335.69812,252.35851 121.84906,121.84906 0 0 1 457.54718,130.50945 121.84906,121.84906 0 0 1 579.39624,252.35851 Z" />
    <ellipse
       style="fill:#ffffff;stroke-width:0.158"
       id="path945"
       cx="457.54718"
       cy="252.35851"
       rx="106.35682"
       ry="103.08849" />
  </g>
  <g
     inkscape:groupmode="layer"
     id="layer2"
     inkscape:label="Layer 2"
     style="display:inline"
     transform="translate(-318.39624,-113.20757)">
    <polyline
       points="440.17,337.2 440.3,337.7 440.67,338.07 441.18,338.21 441.69,338.21 441.69,338.21 442.01,338.15 442.29,338 442.29,338 447.19,334.38 451.84,330.45 456.23,326.22 460.34,321.72 464.15,316.96 467.64,311.97 470.81,306.76 473.63,301.36 476.09,295.79 478.2,290.07 479.92,284.23 481.27,278.28 482.23,272.27 482.8,266.2 482.97,260.11 482.76,254.02 482.15,247.96 481.15,241.95 479.76,236.01 477.99,230.18 477.99,230.18 477.98,229.58 478.3,229.08 478.86,228.85 479.45,228.98 479.45,228.98 485.05,232.36 490.44,236.08 495.59,240.12 500.49,244.46 505.11,249.09 509.45,254 513.48,259.16 517.19,264.55 520.56,270.16 523.59,275.97 526.26,281.94 528.56,288.07 528.56,288.07 528.88,288.53 529.39,288.75 529.94,288.66 530.36,288.3 530.36,288.3 533.74,282.75 536.78,277.01 539.46,271.1 541.79,265.03 543.74,258.84 545.32,252.54 546.52,246.16 547.33,239.71 547.75,233.23 547.78,226.74 547.42,220.26 546.66,213.81 545.53,207.41 544,201.1 542.11,194.89 539.84,188.81 537.2,182.87 534.22,177.1 530.89,171.52 527.24,166.16 523.26,161.02 518.99,156.13 514.43,151.51 514.43,151.51 514.19,151.18 514.11,150.78 514.12,135.59 514.12,135.59 514.28,135.06 514.7,134.68 515.25,134.59 515.76,134.8 515.76,134.8 521.06,139.29 526.08,144.07 530.83,149.13 535.27,154.46 539.41,160.03 543.22,165.82 546.69,171.83 549.82,178.02 552.58,184.38 554.98,190.89 557,197.53 558.63,204.27 559.88,211.09 560.74,217.98 561.2,224.9 561.26,231.84 560.93,238.77 560.2,245.66 559.08,252.51 557.57,259.28 555.68,265.95 553.4,272.51 550.76,278.92 547.75,285.17 544.39,291.24 540.69,297.11 536.66,302.75 532.31,308.16 527.66,313.31 522.73,318.18 522.73,318.18 522.23,318.43 521.67,318.38 521.22,318.04 521.03,317.51 521.03,317.51 520.41,311.4 519.4,305.35 518,299.37 516.24,293.49 514.1,287.73 511.6,282.12 508.75,276.68 505.56,271.44 502.04,266.4 498.21,261.6 498.21,261.6 497.7,261.28 497.1,261.3 496.62,261.67 496.43,262.24 496.43,262.24 496.12,268.77 495.42,275.26 494.33,281.7 492.84,288.07 490.98,294.33 488.73,300.47 486.12,306.46 483.16,312.28 479.84,317.91 476.19,323.33 472.22,328.51 467.94,333.45 463.37,338.12 458.52,342.51 453.42,346.59 448.08,350.35 448.08,350.35 447.59,350.52 447.59,350.52 440.88,350.75 434.16,350.61 427.46,350.1 427.46,350.1 427,349.93 426.68,349.57 426.56,349.1 426.56,243.05 426.56,243.05 426.42,242.54 426.05,242.17 425.55,242.04 334.12,242.04 334.12,242.04 333.58,242.19 333.21,242.62 333.12,243.18 333.12,243.18 334.07,249.22 335.36,255.21 336.99,261.11 338.95,266.91 341.24,272.59 343.84,278.13 346.76,283.51 349.98,288.72 353.49,293.74 357.27,298.55 361.33,303.14 365.64,307.49 365.64,307.49 365.87,307.82 365.95,308.22 365.94,323.41 365.94,323.41 365.79,323.94 365.37,324.32 364.82,324.41 364.3,324.2 364.3,324.2 359.12,319.81 354.19,315.14 349.53,310.2 345.15,305 341.07,299.57 337.31,293.92 333.86,288.07 330.75,282.03 327.98,275.83 325.56,269.49 323.5,263.02 321.81,256.44 320.49,249.78 319.54,243.06 318.97,236.29 318.78,229.5 318.97,222.71 319.54,215.94 320.49,209.22 321.81,202.56 323.5,195.98 325.56,189.51 327.98,183.17 330.75,176.97 333.86,170.93 337.31,165.08 341.07,159.43 345.15,154 349.53,148.8 354.19,143.86 359.12,139.19 364.3,134.8 364.3,134.8 364.82,134.59 365.37,134.68 365.79,135.06 365.94,135.59 365.95,150.78 365.95,150.78 365.87,151.18 365.64,151.51 365.64,151.51 361.31,155.88 357.23,160.5 353.43,165.34 349.91,170.38 346.68,175.62 343.76,181.04 341.15,186.61 338.86,192.33 336.91,198.16 335.29,204.1 334.01,210.12 333.07,216.2 332.49,222.33 332.25,228.48 332.25,228.48 332.39,228.99 332.76,229.36 333.27,229.5 425.55,229.5 425.55,229.5 426.05,229.36 426.42,228.99 426.56,228.49 426.56,109.9 426.56,109.9 426.68,109.43 427,109.07 427.46,108.9 427.46,108.9 433.23,108.44 439.01,108.25 439.01,108.25 439.52,108.38 439.9,108.75 440.03,109.26 440.03,337.2"
       style="fill:#999999;stroke:#000000;stroke-width:0.5"
       id="polyline5870"
       transform="translate(17.527203,22.858977)"
       inkscape:transform-center-x="-1.8868153"
       inkscape:transform-center-y="-66.037264" />
    <path
       style="opacity:1;fill:url(#radialGradient36344);fill-opacity:1;stroke:none;stroke-width:0.079;stroke-linejoin:miter;stroke-miterlimit:4;stroke-dasharray:none;stroke-opacity:1"
       d="m 451.84759,372.81553 c -3.30059,-0.15707 -6.31952,-0.31493 -6.70872,-0.35081 -0.60744,-0.056 -0.68968,-7.62432 -0.58073,-53.44105 0.0698,-29.35669 -0.0369,-53.62665 -0.23713,-53.93324 -0.42028,-0.64356 -92.62865,-0.96746 -93.65345,-0.32898 -0.70382,0.4385 -0.40498,3.26273 1.10804,10.47158 3.92717,18.71112 13.72697,37.32929 27.09653,51.4794 l 4.07428,4.31214 0.0281,7.79815 c 0.0155,4.28898 -0.16974,7.79886 -0.41159,7.79973 -0.73751,0.003 -8.60049,-7.0486 -12.73914,-11.42404 -17.45527,-18.45393 -28.58239,-42.13262 -32.14947,-68.41458 -0.88196,-6.49821 -0.83212,-22.42908 0.0916,-29.26755 3.45014,-25.54297 14.31506,-48.81805 31.42211,-67.31313 3.94211,-4.26197 12.50893,-12.0788 13.2406,-12.08144 0.2168,-7.8e-4 0.40685,3.50851 0.42232,7.79844 l 0.0281,7.79985 -4.29139,4.5906 c -17.60228,18.82953 -27.49709,42.21497 -29.16586,68.93074 -0.14605,2.33804 -0.0935,4.51286 0.11686,4.83294 0.28402,0.43225 12.49674,0.63257 47.47631,0.77875 l 47.09391,0.1968 0.2462,-1.20088 c 0.13542,-0.66049 0.24882,-27.70551 0.25201,-60.10005 0.003,-32.39454 0.16267,-59.05779 0.35438,-59.25166 0.19171,-0.19387 3.05652,-0.43796 6.36624,-0.54241 l 6.01767,-0.18992 -0.21246,23.91913 c -0.11685,13.15553 -0.12585,64.75659 -0.02,114.66903 l 0.19246,90.7499 1.36948,0.15269 c 2.69584,0.30056 14.65757,-10.06554 21.25571,-18.42031 14.06651,-17.81146 20.94027,-37.59219 20.83381,-59.9538 -0.0423,-8.87206 -0.90216,-15.84332 -2.88156,-23.36055 -1.79771,-6.82718 -1.89407,-7.30826 -1.46418,-7.30981 0.20478,-7.4e-4 2.88068,1.63571 5.94644,3.63655 18.90925,12.34091 33.03774,29.63923 41.50559,50.81766 2.55822,6.39821 3.17775,6.69584 5.68162,2.72952 7.0643,-11.19038 12.24439,-24.88779 14.78721,-39.10091 1.47725,-8.25711 1.5261,-27.81666 0.0888,-35.57823 -4.11709,-22.23357 -12.64727,-39.54883 -27.7023,-56.23247 l -4.34622,-4.81638 -0.0281,-7.79293 c -0.0155,-4.28611 0.14065,-7.78975 0.34692,-7.78586 0.70918,0.0133 10.59245,9.20786 14.17863,13.19053 7.89436,8.76719 13.46306,17.01493 18.85924,27.93216 5.58109,11.29138 9.0162,22.01619 11.19746,34.95985 1.31974,7.83132 1.39362,27.70356 0.13204,35.49975 -2.14272,13.24082 -5.47723,23.8156 -11.20691,35.54065 -4.26089,8.71938 -8.53122,15.52594 -14.14825,22.55118 -4.21997,5.27792 -11.32096,12.79091 -12.09211,12.79369 -0.30022,10e-4 -0.68959,-1.58983 -0.88644,-3.62182 -1.00441,-10.36827 -4.94061,-23.69438 -9.90954,-33.54898 -3.15364,-6.25434 -8.14708,-13.9715 -11.4848,-17.74919 -1.67963,-1.90104 -2.12087,-2.15832 -2.89508,-1.68808 -0.67405,0.40941 -0.94347,1.26208 -1.02808,3.25373 -0.39702,9.34529 -2.52604,20.87631 -5.52298,29.91313 -7.13402,21.51152 -22.12722,41.61541 -40.30014,54.03714 -2.6314,1.79864 -5.82206,2.13579 -15.7441,1.66365 z"
       id="path35977" />
  </g>
  <metadata
     id="metadata28515">
    <rdf:RDF>
      <cc:Work
         rdf:about="">
        <dc:title>Produce by Acme CAD Converter</dc:title>
      </cc:Work>
    </rdf:RDF>
  </metadata>
</svg>
